# xmcd
#
# Track frame offsets:
# 150
# 7946
# 27928
# 32399
# 48633
# 54949
# 64549
# 74231
# 81324
# 96359
# 107966
# 115697
# 146788
# 155331
# 157968
# 174071
# 176286
# 187185
# 195384
# 212442
# 223626
# 225988
# 227953
# 229527
# 242102
# 243656
# 254496
# 255182
# 263875
# 265076
# 278057
# 278897
#
# Disc length: 4167 seconds
#
# Revision: 0
# Processed by: cddbd v1.5PL3 Copyright (c) Steve Scherf et al.
# Submitted via: Audion 3.0.2 (http://www.panic.com/audion/)
#
DISCID=b8104520
DTITLE=Música Tradicional En España - El Caldero
DYEAR=1900
DGENRE=
TTITLE0=dime tu rubita
TTITLE1=Procsión del encuentro
TTITLE2=toreras
TTITLE3=boda de Inesilla
TTITLE4=el toro
TTITLE5=esta calle abajo va
TTITLE6=canción de quintos
TTITLE7=rogativas
TTITLE8=las buenas noches
TTITLE9=coplas del panadero
TTITLE10=despedida de quintas
TTITLE11=romance dela pulida hortelana
TTITLE12=quzás si, qiuzás no
TTITLE13=pregon de casillas de Coria
TTITLE14=zaragata
TTITLE15=pregón de casas de don Gómez
TTITLE16=que si "quies"
TTITLE17=serenos
TTITLE18=la clavellina
TTITLE19=cencerrá
TTITLE20=el puchero - el barrilero
TTITLE21=vendedor de romances
TTITLE22=el latero
TTITLE23=esquileo
TTITLE24=pregón de cilleros
TTITLE25=aceitunas
TTITLE26=pregón de Valverde del Fresno
TTITLE27=cava de garbanzos
TTITLE28=pregón de Baños de Monte mayor
TTITLE29=el piojo y la pulga
TTITLE30=pregón de montehermoso
TTITLE31=La manzana
EXTD=
EXTT0=
EXTT1=
EXTT2=
EXTT3=
EXTT4=
EXTT5=
EXTT6=
EXTT7=
EXTT8=
EXTT9=
EXTT10=
EXTT11=
EXTT12=
EXTT13=
EXTT14=
EXTT15=
EXTT16=
EXTT17=
EXTT18=
EXTT19=
EXTT20=
EXTT21=
EXTT22=
EXTT23=
EXTT24=
EXTT25=
EXTT26=
EXTT27=
EXTT28=
EXTT29=
EXTT30=
EXTT31=
PLAYORDER=
